<?xml version="1.0" encoding="UTF-8" standalone="no"?>
<svg
   viewBox="0 0 24 24"
   version="1.1"
   id="svg4"
   sodipodi:docname="favicon.svg"
   inkscape:version="1.3.2 (091e20e, 2023-11-25, custom)"
   xmlns:inkscape="http://www.inkscape.org/namespaces/inkscape"
   xmlns:sodipodi="http://sodipodi.sourceforge.net/DTD/sodipodi-0.dtd"
   xmlns="http://www.w3.org/2000/svg"
   xmlns:svg="http://www.w3.org/2000/svg">
  <defs
     id="defs4" />
  <sodipodi:namedview
     id="namedview4"
     pagecolor="#ffffff"
     bordercolor="#000000"
     borderopacity="0.25"
     inkscape:showpageshadow="2"
     inkscape:pageopacity="0.0"
     inkscape:pagecheckerboard="0"
     inkscape:deskcolor="#d1d1d1"
     inkscape:zoom="35.875"
     inkscape:cx="10.996516"
     inkscape:cy="12"
     inkscape:window-width="1920"
     inkscape:window-height="1057"
     inkscape:window-x="-8"
     inkscape:window-y="-8"
     inkscape:window-maximized="1"
     inkscape:current-layer="svg4" />
  <path
     d="M 11.831719,7.271464 V 9.0175154 H 10.192914 A 1.6388056,1.7460509 0 0 0 8.5541075,10.763566 v 1.746051 H 6.9153023 v 1.746051 h 1.6388052 v 1.746051 H 6.9153023 v 1.746051 h 1.6388052 v 1.74605 a 1.6388056,1.7460509 0 0 0 1.6388065,1.746052 h 1.638805 v 1.746051 h 1.638803 v -1.746051 h 1.638809 v 1.746051 h 1.638804 v -1.746051 h 1.638805 a 1.6388056,1.7460509 0 0 0 1.638807,-1.746052 v -1.74605 h 1.638805 v -1.746051 h -1.638805 v -1.746051 h 1.638805 V 12.509617 H 20.025747 V 10.763566 A 1.6388056,1.7460509 0 0 0 18.38694,9.0175154 H 16.748135 V 7.271464 H 15.109331 V 9.0175154 H 13.470522 V 7.271464 m -3.277609,5.238153 h 2.86791 a 0.8194028,0.87302549 0 0 1 0.819402,0.873026 v 3.492101 a 0.8194028,0.87302549 0 0 1 -0.819402,0.873026 h -2.867909 v -1.309539 h 2.458208 v -0.654768 h -1.229104 v -1.309538 h 1.229104 v -0.654769 h -2.458207 m 4.506711,-1.309539 h 2.867912 a 0.8194028,0.87302549 0 0 1 0.819402,0.873026 v 1.527795 a 0.8194028,0.87302549 0 0 1 -0.819402,0.873025 H 15.92873 v 0.654768 h 2.458209 v 1.309539 h -3.687313 v -2.40082 a 0.8194028,0.87302549 0 0 1 0.819404,-0.873025 h 1.638805 v -0.654769 h -2.458209"
     id="path3"
     style="fill:#2563eb;fill-opacity:1;stroke-width:0.84579" />
  <path
     d="M 7.7499796,0.7352586 6.8507024,1.3916143 7.1888373,1.8349386 0.8938977,6.4294341 A 2.251903,2.2047433 10.44465 0 0 0.44788332,9.5154453 2.251903,2.2047433 10.44465 0 0 3.5989765,9.9760293 L 9.893915,5.3815358 10.23205,5.8248603 11.131328,5.1685038 7.7499796,0.7352586 M 2.8075786,7.1030522 C 2.6046977,6.8370572 2.6493005,6.5284552 2.9190818,6.3315495 3.1888652,6.1346415 3.5039756,6.1806996 3.7068565,6.4466946 3.9097374,6.7126886 3.8651346,7.0212916 3.5953512,7.2181986 3.3255694,7.4151042 3.0104589,7.369047 2.8075777,7.1030539 M 5.2824019,6.6769894 C 5.079521,6.4109945 5.1241221,6.1023934 5.3939049,5.9054868 5.6636881,5.7085796 5.978797,5.7546386 6.1816775,6.0206353 6.3845585,6.2866294 6.3399577,6.5952297 6.0701747,6.7921369 5.8003912,6.9890449 5.4852826,6.9429844 5.2824018,6.6769894 M 7.8687303,5.4794213 6.5161909,3.7061232 7.8651063,2.7215885 9.2176464,4.4948868 Z"
     id="path4"
     style="fill:#2563eb;fill-opacity:1;stroke-width:0.557049" />
  <path
     id="path5"
     style="fill:#ff0000;fill-opacity:1;stroke:none;stroke-width:1.53427;stroke-dasharray:none;paint-order:markers fill stroke"
     d="M 11.131328,5.1685038 9.853886,7.1526956 a 2,2.5787525 0 0 0 0.261436,3.6312944 2,2.5787525 0 0 0 2.816319,-0.337089 2,2.5787525 0 0 0 -0.261436,-3.6312945 z" />
</svg>
